<svg id="mark" xmlns="http://www.w3.org/2000/svg" width="14.003" height="14.002" viewBox="0 0 14.003 14.002">
  <circle id="Ellipse_18" data-name="Ellipse 18" cx="7" cy="7" r="7" fill="#6d9eeb"/>
  <path id="Union_1" data-name="Union 1" d="M8064.079,15216.978a6.951,6.951,0,0,1-2.078-4.9,6,6,0,0,0,11.659,1.92c-.052,0-.1,0-.158,0a2.5,2.5,0,1,1,2.5-2.5c0,.052,0,.1,0,.153.006.115.009.229.009.344a7,7,0,0,1-11.924,4.98Zm-2.066-5.409c.011-.194.03-.386.057-.568h.015a4.521,4.521,0,0,0-.068.568Z" transform="translate(-8062 -15205)" fill="#fff"/>
</svg>
