<svg xmlns="http://www.w3.org/2000/svg" width="32.5" height="13.501" viewBox="0 0 32.5 13.501">
  <path id="Icon_ion-ios-arrow-thin-right" data-name="Icon ion-ios-arrow-thin-right" d="M32.655,24.588a.571.571,0,0,1,0-.795l4.669-5.231H7.313a.563.563,0,0,1,0-1.125H37.323l-4.662-5.231a.562.562,0,1,1,.795-.795s5.569,6.117,5.625,6.188a.61.61,0,0,1,.169.4.577.577,0,0,1-.169.4c-.056.056-5.625,6.188-5.625,6.188a.569.569,0,0,1-.4.162A.582.582,0,0,1,32.655,24.588Z" transform="translate(-6.75 -11.249)" fill="#fff"/>
</svg>
