<svg xmlns="http://www.w3.org/2000/svg" xmlns:xlink="http://www.w3.org/1999/xlink" width="74" height="74" viewBox="0 0 74 74">
  <defs>
    <clipPath id="clip-path">
      <rect id="Rectangle_1466" data-name="Rectangle 1466" width="74" height="74" fill="none"/>
    </clipPath>
  </defs>
  <g id="_74_74" data-name="74*74" transform="translate(121 -53)">
    <g id="Group_1869" data-name="Group 1869" transform="translate(-121 53)" clip-path="url(#clip-path)">
      <path id="Path_6897" data-name="Path 6897" d="M18.826,4.276A1.276,1.276,0,1,1,17.55,3,1.276,1.276,0,0,1,18.826,4.276Z" transform="translate(-7.368 -1.358)" fill="none" stroke="#fff" stroke-linecap="round" stroke-linejoin="round" stroke-width="2"/>
      <rect id="Rectangle_1464" data-name="Rectangle 1464" width="16.59" height="13.86" rx="6.93" transform="translate(1.887 9.678)" fill="none" stroke="#fff" stroke-linecap="round" stroke-linejoin="round" stroke-width="2"/>
      <rect id="Rectangle_1465" data-name="Rectangle 1465" width="17.08" height="25.154" rx="8.54" transform="translate(1.642 23.538)" fill="none" stroke="#fff" stroke-linecap="round" stroke-linejoin="round" stroke-width="2"/>
      <line id="Line_88" data-name="Line 88" y2="22.835" transform="translate(14.591 48.692)" fill="none" stroke="#fff" stroke-linecap="round" stroke-linejoin="round" stroke-width="2"/>
      <line id="Line_89" data-name="Line 89" y1="22.835" transform="translate(5.773 48.692)" fill="none" stroke="#fff" stroke-linecap="round" stroke-linejoin="round" stroke-width="2"/>
      <circle id="Ellipse_19" data-name="Ellipse 19" cx="1.632" cy="1.632" r="1.632" transform="translate(9.955 28.533)" fill="none" stroke="#fff" stroke-linecap="round" stroke-linejoin="round" stroke-width="2"/>
      <path id="Path_6898" data-name="Path 6898" d="M58.944,65.912a1.632,1.632,0,1,1-1.632-1.632A1.632,1.632,0,0,1,58.944,65.912Z" transform="translate(-25.211 -29.104)" fill="none" stroke="#fff" stroke-linecap="round" stroke-linejoin="round" stroke-width="2"/>
      <path id="Path_6899" data-name="Path 6899" d="M95.832,55.376A5.775,5.775,0,1,1,90.057,49.6,5.775,5.775,0,0,1,95.832,55.376Z" transform="translate(-38.16 -22.458)" fill="none" stroke="#fff" stroke-linecap="round" stroke-linejoin="round" stroke-width="2"/>
      <path id="Path_6900" data-name="Path 6900" d="M87.289,102.286A12.514,12.514,0,1,1,68.12,89.822" transform="translate(-28.26 -40.669)" fill="none" stroke="#fff" stroke-linecap="round" stroke-linejoin="round" stroke-width="2"/>
      <path id="Path_6901" data-name="Path 6901" d="M111.177,93.091l-4.369-8.233a2.614,2.614,0,0,0-2.6-1.364c-.1-.009-.2-.015-.3-.015h-6.45a2.171,2.171,0,0,1-2.171-2.171V75.255a4.509,4.509,0,0,0-3.977-4.533,4.427,4.427,0,0,0-4.856,4.395V85.648a4.332,4.332,0,0,0,.046.6,2.571,2.571,0,0,0,.768,2.372,4.577,4.577,0,0,0,3.373,1.445H103.67l2.948,5.557a2.613,2.613,0,0,0,3.823.9A2.674,2.674,0,0,0,111.177,93.091Z" transform="translate(-39.144 -32.011)" fill="none" stroke="#fff" stroke-linecap="round" stroke-linejoin="round" stroke-width="2"/>
      <path id="Path_6902" data-name="Path 6902" d="M74.986,87.263l-4.8-20H64.432" transform="translate(-29.173 -30.454)" fill="none" stroke="#fff" stroke-linecap="round" stroke-linejoin="round" stroke-width="2"/>
      <circle id="Ellipse_20" data-name="Ellipse 20" cx="2.606" cy="2.606" r="2.606" transform="translate(44.063 57.047)" fill="none" stroke="#fff" stroke-linecap="round" stroke-linejoin="round" stroke-width="2"/>
      <line id="Line_90" data-name="Line 90" y2="5.484" transform="translate(10.182 4.194)" fill="none" stroke="#fff" stroke-linecap="round" stroke-linejoin="round" stroke-width="2"/>
      <path id="Path_6903" data-name="Path 6903" d="M19.508,53.953S25.95,59.431,28.96,60.1A71.222,71.222,0,0,0,39.3,61.141" transform="translate(-8.833 -24.428)" fill="none" stroke="#fff" stroke-linecap="round" stroke-linejoin="round" stroke-width="2"/>
      <line id="Line_91" data-name="Line 91" x2="17.08" transform="translate(1.642 41.973)" fill="none" stroke="#fff" stroke-linecap="round" stroke-linejoin="round" stroke-width="2"/>
    </g>
  </g>
</svg>
