<svg xmlns="http://www.w3.org/2000/svg" xmlns:xlink="http://www.w3.org/1999/xlink" width="74" height="74" viewBox="0 0 74 74">
  <defs>
    <clipPath id="clip-path">
      <rect id="Rectangle_1468" data-name="Rectangle 1468" width="74" height="74" transform="translate(0 0)" fill="none"/>
    </clipPath>
  </defs>
  <g id="_74_74" data-name="74*74" transform="translate(121 -53)">
    <g id="Group_1871" data-name="Group 1871" transform="translate(-121 53)" clip-path="url(#clip-path)">
      <path id="Path_6918" data-name="Path 6918" d="M51.063,21S61.851,26.4,63.141,38.99a14.176,14.176,0,0,1-7.42,14.423c-3.464,1.959-8.214,2.682-12.2,2.682s-8.736-.723-12.2-2.682A14.176,14.176,0,0,1,23.9,38.99C25.192,26.4,35.98,21,35.98,21" transform="translate(-6.521 -5.753)" fill="none" stroke="#fff" stroke-linecap="round" stroke-linejoin="round" stroke-width="2"/>
      <path id="Path_6919" data-name="Path 6919" d="M52.815,9.8A11.111,11.111,0,0,0,55.81,1.875s-3.368.374-7.8.374-7.8-.374-7.8-.374A11.109,11.109,0,0,0,43.209,9.8" transform="translate(-11.012 -0.513)" fill="none" stroke="#fff" stroke-linecap="round" stroke-linejoin="round" stroke-width="2"/>
      <path id="Path_6920" data-name="Path 6920" d="M53.933,17.5a24.619,24.619,0,0,1-4.779.458,24.619,24.619,0,0,1-4.779-.458" transform="translate(-12.154 -4.792)" fill="none" stroke="#fff" stroke-linecap="round" stroke-linejoin="round" stroke-width="2"/>
      <path id="Path_6921" data-name="Path 6921" d="M14.811,79.158c-.762-7.613-11.42-9.9-12.562-22.841s.508-21.064,2.538-21.064,3.553,2.284,4.06,5.583,1.015,7.487,1.015,7.487" transform="translate(-0.513 -9.655)" fill="none" stroke="#fff" stroke-linecap="round" stroke-linejoin="round" stroke-width="2"/>
      <path id="Path_6922" data-name="Path 6922" d="M28.152,85.373c0-2.665.19-7.043-.952-9.327s-7.36-8.375-8.5-13.323S13.75,57.393,13.75,61.2s2.157,9.009,2.157,9.009" transform="translate(-3.766 -16.061)" fill="none" stroke="#fff" stroke-linecap="round" stroke-linejoin="round" stroke-width="2"/>
      <path id="Path_6923" data-name="Path 6923" d="M82.221,79.158c.762-7.613,11.42-9.9,12.562-22.841s-.508-21.064-2.538-21.064-3.553,2.284-4.06,5.583-1.015,7.487-1.015,7.487" transform="translate(-22.52 -9.655)" fill="none" stroke="#fff" stroke-linecap="round" stroke-linejoin="round" stroke-width="2"/>
      <path id="Path_6924" data-name="Path 6924" d="M68.324,85.373c0-2.665-.19-7.043.952-9.327s7.36-8.375,8.5-13.323,4.949-5.33,4.949-1.523-2.157,9.009-2.157,9.009" transform="translate(-18.71 -16.061)" fill="none" stroke="#fff" stroke-linecap="round" stroke-linejoin="round" stroke-width="2"/>
      <line id="Line_96" data-name="Line 96" y2="20" transform="translate(37 25.136)" fill="none" stroke="#fff" stroke-linecap="round" stroke-linejoin="round" stroke-width="2"/>
      <line id="Line_97" data-name="Line 97" x2="15.533" transform="translate(29.233 30.328)" fill="none" stroke="#fff" stroke-linecap="round" stroke-linejoin="round" stroke-width="2"/>
      <line id="Line_98" data-name="Line 98" x2="17.297" transform="translate(28.351 36.144)" fill="none" stroke="#fff" stroke-linecap="round" stroke-linejoin="round" stroke-width="2"/>
      <path id="Path_6925" data-name="Path 6925" d="M43.139,31.228l7.817,7.054,7.817-7.054" transform="translate(-13.957 -9.211)" fill="none" stroke="#fff" stroke-linecap="round" stroke-linejoin="round" stroke-width="2"/>
    </g>
  </g>
</svg>
