<svg xmlns="http://www.w3.org/2000/svg" xmlns:xlink="http://www.w3.org/1999/xlink" width="74" height="74" viewBox="0 0 74 74">
  <defs>
    <clipPath id="clip-path">
      <rect id="Rectangle_1467" data-name="Rectangle 1467" width="74" height="74" transform="translate(-1)" fill="none"/>
    </clipPath>
  </defs>
  <g id="_74_74" data-name="74*74" transform="translate(121 -53)">
    <g id="Group_1870" data-name="Group 1870" transform="translate(-120 53)" clip-path="url(#clip-path)">
      <path id="Path_6904" data-name="Path 6904" d="M105.476,29.986,95.281,36.744a1.5,1.5,0,0,1-1.658,0L83.428,29.986a1.5,1.5,0,0,1-.671-1.251V4.5a1.5,1.5,0,0,1,2.33-1.251l8.536,5.659a1.5,1.5,0,0,0,1.658,0l8.535-5.659a1.5,1.5,0,0,1,2.33,1.251V28.735A1.5,1.5,0,0,1,105.476,29.986Z" transform="translate(-35.43 -1.282)" fill="none" stroke="#fff" stroke-linecap="round" stroke-linejoin="round" stroke-width="2"/>
      <line id="Line_92" data-name="Line 92" y2="21.098" transform="translate(59.022 14.914)" fill="none" stroke="#fff" stroke-linecap="round" stroke-linejoin="round" stroke-width="2"/>
      <path id="Path_6905" data-name="Path 6905" d="M56.959,63.265c-2.68,9.15-9.3,14.382-16.363,14.382S26.913,72.415,24.233,63.265" transform="translate(-10.428 -27.027)" fill="none" stroke="#fff" stroke-linecap="round" stroke-linejoin="round" stroke-width="2"/>
      <path id="Path_6906" data-name="Path 6906" d="M24.221,38.133a14.78,14.78,0,0,0-1.28,8.7" transform="translate(-9.803 -16.291)" fill="none" stroke="#fff" stroke-linecap="round" stroke-linejoin="round" stroke-width="2"/>
      <path id="Path_6907" data-name="Path 6907" d="M27.437,50.589A43.168,43.168,0,0,0,39.75,45.138a8.153,8.153,0,0,1-1.1,6.022s7.306-1.577,10.053-7.1a17.216,17.216,0,0,0,5.09,5.275,8.727,8.727,0,0,0,2.343,1.151" transform="translate(-11.796 -18.823)" fill="none" stroke="#fff" stroke-linecap="round" stroke-linejoin="round" stroke-width="2"/>
      <path id="Path_6908" data-name="Path 6908" d="M20.976,53.038a4.16,4.16,0,0,0,0,8.312c.123,0,.244-.008.364-.019" transform="translate(-7.338 -22.658)" fill="none" stroke="#fff" stroke-linecap="round" stroke-linejoin="round" stroke-width="2"/>
      <path id="Path_6909" data-name="Path 6909" d="M47.879,105.042l-1.753,5.331-.5,6.627" transform="translate(-19.568 -44.875)" fill="none" stroke="#fff" stroke-linecap="round" stroke-linejoin="round" stroke-width="2"/>
      <path id="Path_6910" data-name="Path 6910" d="M56.042,105.042l1.753,5.331.5,6.627" transform="translate(-24.016 -44.875)" fill="none" stroke="#fff" stroke-linecap="round" stroke-linejoin="round" stroke-width="2"/>
      <path id="Path_6911" data-name="Path 6911" d="M18.743,94.874c-2.568.931-10.606,3.253-12.225,5.61C3.282,105.2,3,112.241,3,112.241" transform="translate(-1.357 -40.531)" fill="none" stroke="#fff" stroke-linecap="round" stroke-linejoin="round" stroke-width="2"/>
      <path id="Path_6912" data-name="Path 6912" d="M75.114,94.874c2.568.931,10.606,3.253,12.225,5.61,3.236,4.714,3.519,11.757,3.519,11.757" transform="translate(-32.164 -40.531)" fill="none" stroke="#fff" stroke-linecap="round" stroke-linejoin="round" stroke-width="2"/>
      <path id="Path_6913" data-name="Path 6913" d="M72.177,123.6v-3.471H80.34V123.6" transform="translate(-30.91 -51.322)" fill="none" stroke="#fff" stroke-linecap="round" stroke-linejoin="round" stroke-width="2"/>
      <path id="Path_6914" data-name="Path 6914" d="M45.54,96.995l1.143,4.6h6.031l1.142-4.6Z" transform="translate(-19.53 -41.437)" fill="none" stroke="#fff" stroke-linecap="round" stroke-linejoin="round" stroke-width="2"/>
      <path id="Path_6915" data-name="Path 6915" d="M52.025,23.554a14.162,14.162,0,0,0-5.678-2.543c-3.655-.76-7.407-.7-11.07-1.612a48.149,48.149,0,0,1-5.964-1.789s-.276,2.982.773,4.473a21.978,21.978,0,0,1-5.964.055s.939,2.871,3,3.736" transform="translate(-10.38 -7.523)" fill="none" stroke="#fff" stroke-linecap="round" stroke-linejoin="round" stroke-width="2"/>
      <path id="Path_6916" data-name="Path 6916" d="M81.023,66.156c.12.011.241.019.364.019a3.927,3.927,0,0,0,3.3-1.842" transform="translate(-34.689 -27.484)" fill="none" stroke="#fff" stroke-linecap="round" stroke-linejoin="round" stroke-width="2"/>
    </g>
  </g>
</svg>
